<svg xmlns="http://www.w3.org/2000/svg" xml:space="preserve" viewBox="0 0 512 512"><path d="M256 480c123.7 0 224-100.3 224-224S379.7 32 256 32 32 132.3 32 256s100.3 224 224 224m0 32c141.4 0 256-114.6 256-256S397.4 0 256 0 0 114.6 0 256s114.6 256 256 256" style="fill-rule:evenodd;clip-rule:evenodd"/><path d="m285.8 210.8-73.3 9.2-2.6 12.2 14.4 2.6c9.4 2.3 11.3 5.6 9.2 15l-23.6 111c-6.2 28.7 3.4 42.2 25.9 42.2 17.4 0 37.7-8.1 46.9-19.1l2.8-13.3c-6.4 5.6-15.8 7.9-22 7.9-8.8 0-12-6.2-9.7-17.1z"/><circle cx="256" cy="144" r="32"/></svg>