<svg xmlns="http://www.w3.org/2000/svg" xmlns:xlink="http://www.w3.org/1999/xlink" version="1.1" x="0px" y="0px" viewBox="0 0 100 125" style="enable-background:new 0 0 100 100;" xml:space="preserve"><path d="M82.431,55.706l0.422-0.664h2.438c0.929,0,1.681-0.752,1.681-1.681c0-0.928-0.752-1.68-1.681-1.68H82.53L70.201,41.593  c0.913-0.019,1.646-0.761,1.646-1.677v-6.722c0-0.928-0.752-1.681-1.681-1.681h-5.041c-0.101,0-0.201,0.007-0.3,0.015l-1.413-7.067  c-0.183-0.91-1.061-1.498-1.978-1.318c-0.909,0.183-1.5,1.067-1.318,1.978l1.007,5.033l-0.288-0.144  c-0.233-0.117-0.491-0.177-0.752-0.177h-5.042c-0.928,0-1.68,0.752-1.68,1.68c0,0.928,0.752,1.681,1.68,1.681h4.645l2.136,1.068  c-0.037,0.199-0.058,0.403-0.058,0.612v3.361c0,0.011,0.001,0.021,0.002,0.031c0,0.014,0.002,0.026,0.002,0.04  c0.014,0.653,0.213,1.259,0.548,1.77c2.179,6.438,3.701,15.803,1.572,23.368H51.879l-1.36-2.72  c-1.154-2.306-1.466-4.881-0.919-7.363h0.064c0.591,0,1.137-0.309,1.441-0.815l2.017-3.362c0.063-0.105,0.115-0.217,0.153-0.333  c0.108-0.321,1.001-3.197-0.534-5.327c-0.634-0.878-1.915-1.927-4.421-1.927h-8.402v-3.362c0.928,0,1.68-0.752,1.68-1.68v-6.722  c0-0.928-0.752-1.681-1.68-1.681v-5.042c0-0.928-0.752-1.68-1.681-1.68H11.347c-0.929,0-1.68,0.752-1.68,1.68v6.723  c0,0.928,0.751,1.68,1.68,1.68v3.361c-0.929,0-1.68,0.753-1.68,1.681v6.722c0,0.928,0.751,1.681,1.68,1.681h6.722v3.361  c0,1.878,1.097,4.411,2.583,6.985c-5.309,1.135-9.305,5.858-9.305,11.501c0,6.487,5.278,11.764,11.764,11.764  c3.987,0,7.511-1.999,9.64-5.042h36.178c2.129,3.043,5.653,5.042,9.64,5.042c6.486,0,11.764-5.277,11.764-11.764  C90.333,61.673,87.023,57.309,82.431,55.706z M78.569,75.208c-2.645,0-5.005-1.231-6.546-3.148l3.859-6.064l1.337,1.808  c0.328,0.445,0.837,0.681,1.353,0.681c0.346,0,0.697-0.106,0.998-0.329c0.747-0.552,0.905-1.604,0.352-2.351l-2.105-2.847  l2.742-4.309c3.675,0.896,6.415,4.208,6.415,8.155C86.972,71.439,83.202,75.208,78.569,75.208z M34.38,70.167h-1.771h-1.095v-3.361  h1.68h1.681H50.84h14.285c0.719,0,1.358-0.458,1.59-1.139c0.102-0.299,0.19-0.604,0.281-0.909c0.18-0.607,0.346-1.22,0.486-1.845  c1.437-6.47,0.698-13.826-0.801-19.857l13.031,10.662l-0.852,1.339l-1.086,1.706l-1.203,1.89l-6.239,9.805l-1.088,1.709h-0.172  h-1.771H34.38z M36.555,28.153H13.028v-3.361h23.527V28.153z M14.708,31.514h23.528v3.361H14.708V31.514z M13.028,38.236h23.527  v3.362h-9.995H19.75h-6.722V38.236z M50.012,45.486c0.387,0.532,0.262,1.596,0.118,2.153L48.711,50h-0.392H34.887  c-0.03,0-0.076-0.002-0.129-0.004c-0.008-0.001-0.014-0.001-0.024-0.001c-0.054-0.003-0.12-0.008-0.193-0.014  c-0.015-0.001-0.028-0.002-0.043-0.004c-0.075-0.007-0.16-0.017-0.251-0.029c-0.018-0.002-0.036-0.005-0.054-0.008  c-0.096-0.014-0.199-0.03-0.309-0.051c-0.015-0.003-0.031-0.007-0.047-0.009c-0.112-0.022-0.229-0.047-0.353-0.078  c-0.009-0.002-0.017-0.004-0.026-0.006c-0.126-0.031-0.258-0.069-0.393-0.112c-0.022-0.007-0.044-0.013-0.067-0.02  c-0.132-0.042-0.267-0.091-0.404-0.145c-0.028-0.011-0.056-0.022-0.084-0.033c-0.139-0.056-0.279-0.118-0.421-0.187  c-0.026-0.013-0.053-0.027-0.08-0.04c-0.147-0.074-0.294-0.153-0.442-0.243c-0.017-0.01-0.034-0.021-0.051-0.032  c-0.148-0.091-0.296-0.19-0.443-0.299c-0.011-0.008-0.022-0.015-0.033-0.023c-0.149-0.111-0.295-0.234-0.44-0.364  c-0.023-0.021-0.046-0.041-0.069-0.062c-0.139-0.129-0.275-0.27-0.409-0.418c-0.025-0.028-0.049-0.056-0.074-0.084  c-0.133-0.153-0.261-0.316-0.384-0.491c-0.02-0.028-0.039-0.057-0.059-0.086c-0.127-0.184-0.249-0.378-0.363-0.588  c-0.009-0.016-0.017-0.034-0.025-0.05c-0.114-0.212-0.221-0.438-0.32-0.677c-0.007-0.018-0.015-0.034-0.022-0.051  c-0.098-0.24-0.185-0.497-0.266-0.766c-0.007-0.025-0.017-0.046-0.025-0.071h0.003h9.647h10.083  C48.915,44.958,49.693,45.05,50.012,45.486z M21.43,44.958h3.694c0.006,0.025,0.013,0.047,0.019,0.071  c0.083,0.384,0.178,0.755,0.288,1.106c0.001,0.005,0.003,0.01,0.004,0.015c0.111,0.354,0.236,0.69,0.371,1.013  c0.009,0.023,0.018,0.046,0.028,0.069c0.131,0.31,0.276,0.602,0.427,0.884c0.019,0.034,0.036,0.069,0.055,0.103  c0.15,0.27,0.309,0.526,0.474,0.771c0.025,0.037,0.049,0.074,0.074,0.11c0.166,0.238,0.339,0.464,0.518,0.678  c0.029,0.034,0.057,0.068,0.086,0.102c0.181,0.211,0.367,0.411,0.559,0.599c0.028,0.028,0.057,0.055,0.086,0.082  c0.196,0.188,0.396,0.367,0.601,0.533c0.024,0.019,0.047,0.037,0.071,0.056c0.212,0.169,0.427,0.329,0.646,0.476  c0.011,0.008,0.023,0.014,0.034,0.022c0.224,0.149,0.45,0.287,0.678,0.414c0.008,0.005,0.016,0.01,0.025,0.014  c0.225,0.125,0.451,0.238,0.677,0.342c0.023,0.011,0.046,0.022,0.068,0.032c0.218,0.098,0.435,0.187,0.651,0.268  c0.03,0.012,0.06,0.023,0.09,0.034c0.212,0.077,0.421,0.145,0.628,0.206c0.032,0.009,0.064,0.019,0.097,0.028  c0.205,0.058,0.407,0.109,0.605,0.153c0.03,0.007,0.061,0.013,0.091,0.02c0.199,0.042,0.394,0.077,0.584,0.106  c0.025,0.004,0.049,0.007,0.074,0.01c0.193,0.027,0.381,0.048,0.56,0.062c0.016,0.001,0.031,0.002,0.046,0.003  c0.187,0.013,0.367,0.021,0.538,0.021h11.298c-0.505,3.007-0.05,6.086,1.339,8.866l0.609,1.217H34.38h-1.771h-1.801h-0.194  c-0.901-1.076-1.9-2.331-2.897-3.66c-0.659-0.877-1.316-1.785-1.945-2.696c-0.453-0.657-0.891-1.314-1.303-1.962  c-1.751-2.749-3.037-5.309-3.037-6.807V44.958z M25.579,62.529l-3.551,2.991c-0.709,0.598-0.801,1.658-0.202,2.368  c0.331,0.394,0.807,0.598,1.286,0.598c0.381,0,0.766-0.129,1.081-0.396l3.478-2.929c0.183,0.222,0.344,0.416,0.481,0.579v6.107  c0,0.485,0.208,0.918,0.536,1.225c-1.486,1.324-3.436,2.136-5.578,2.136c-4.633,0-8.403-3.77-8.403-8.403  c0-4.466,3.506-8.119,7.907-8.378C23.617,59.912,24.652,61.322,25.579,62.529z M68.486,34.875v3.361h-2.389h-0.972l-0.001-0.796  l-0.001-2.565h0.002H68.486z"/><text x="0" y="115" fill="#000000" font-size="5px" font-weight="bold" font-family="'Helvetica Neue', Helvetica, Arial-Unicode, Arial, Sans-serif">Created by Pike Picture</text><text x="0" y="120" fill="#000000" font-size="5px" font-weight="bold" font-family="'Helvetica Neue', Helvetica, Arial-Unicode, Arial, Sans-serif">from the Noun Project</text></svg>