<svg xmlns="http://www.w3.org/2000/svg" viewBox="0 0 100 125" x="0px" y="0px"><path d="M67.49,56.52h-8.89c-2.96,0-5.11-.87-6.22-2.5-.62-.92-1.17-2.47-.31-4.75l1.26-6.29H28.76c-.99,0-1.8-.81-1.8-1.8s.81-1.8,1.8-1.8h26.77c.54,0,1.05,.24,1.39,.66s.48,.97,.37,1.49l-1.72,8.59c-.02,.11-.05,.21-.09,.31-.2,.49-.38,1.16-.11,1.55,.29,.42,1.31,.92,3.24,.92h7.83l2.81-5.08-3.52-10.92c-.63-1.97-.3-4.06,.92-5.73,1.22-1.67,3.1-2.63,5.17-2.63,.8,0,1.51,.53,1.73,1.3l5.65,19.72c.27,.96-.28,1.95-1.23,2.23-.96,.27-1.95-.28-2.23-1.23l-5.19-18.12c-.39,.2-.72,.48-.99,.85-.53,.73-.68,1.64-.4,2.5l3.76,11.66c.15,.47,.1,.99-.14,1.42l-3.7,6.69c-.32,.57-.92,.93-1.57,.93Z"/><path d="M72.62,61.69h0l-35.98-.14c-.99,0-1.8-.81-1.79-1.81,0-.99,.81-1.79,1.8-1.79h0l35.98,.14c.99,0,1.8,.81,1.79,1.81,0,.99-.81,1.79-1.8,1.79Z"/><path d="M93.2,62.29h-21.08c-.99,0-1.8-.81-1.8-1.8,0-6.8,5.54-12.34,12.34-12.34s12.34,5.54,12.34,12.34c0,.99-.81,1.8-1.8,1.8Zm-19.09-3.6h17.11c-.83-3.96-4.35-6.94-8.55-6.94s-7.72,2.98-8.55,6.94Z"/><path d="M82.66,69.16c-4.4,0-7.99-3.58-7.99-7.99,0-.99,.81-1.8,1.8-1.8s1.8,.81,1.8,1.8c0,2.42,1.97,4.39,4.39,4.39s4.39-1.97,4.39-4.39c0-.99,.81-1.8,1.8-1.8s1.8,.81,1.8,1.8c0,4.4-3.58,7.99-7.99,7.99Z"/><path d="M34.84,68.25c-4.4,0-7.99-3.58-7.99-7.99,0-.99,.81-1.8,1.8-1.8s1.8,.81,1.8,1.8c0,2.42,1.97,4.39,4.39,4.39s4.39-1.97,4.39-4.39c0-.99,.81-1.8,1.8-1.8s1.8,.81,1.8,1.8c0,4.4-3.58,7.99-7.99,7.99Z"/><path d="M54.24,42.4h-7.62c-2.64,0-4.78-2.14-4.78-4.78s2.14-4.78,4.78-4.78h7.62c2.64,0,4.78,2.14,4.78,4.78s-2.14,4.78-4.78,4.78Zm-7.62-5.96c-.65,0-1.18,.53-1.18,1.18s.53,1.18,1.18,1.18h7.62c.65,0,1.18-.53,1.18-1.18s-.53-1.18-1.18-1.18h-7.62Z"/><path d="M33.52,62.07h-7.81c-2,0-3.96-.54-5.66-1.56-.85-.51-1.13-1.62-.62-2.47,.51-.85,1.62-1.13,2.47-.62,1.15,.69,2.47,1.05,3.81,1.05h7.81c4.09,0,7.42-3.33,7.42-7.42s-3.33-7.42-7.42-7.42h-7.81c-.99,0-1.8-.81-1.8-1.8s.81-1.8,1.8-1.8h7.81c6.08,0,11.02,4.95,11.02,11.02s-4.95,11.02-11.02,11.02Z"/><path d="M26.43,54.15H15.66c-.99,0-1.8-.81-1.8-1.8s.81-1.8,1.8-1.8h10.77c.99,0,1.8,.81,1.8,1.8s-.81,1.8-1.8,1.8Z"/><path d="M27.64,49.27H10.39c-.99,0-1.8-.81-1.8-1.8s.81-1.8,1.8-1.8H27.64c.99,0,1.8,.81,1.8,1.8s-.81,1.8-1.8,1.8Z"/><path d="M31.23,43.62H6.8c-.99,0-1.8-.81-1.8-1.8s.81-1.8,1.8-1.8H31.23c.99,0,1.8,.81,1.8,1.8s-.81,1.8-1.8,1.8Z"/><path d="M76.98,37.02c-3.67,0-6.66-2.99-6.66-6.66s2.99-6.66,6.66-6.66c.99,0,1.8,.81,1.8,1.8v9.72c0,.99-.81,1.8-1.8,1.8Zm-1.8-9.12c-.76,.56-1.26,1.46-1.26,2.46s.5,1.89,1.26,2.46v-4.92Z"/><path d="M38.72,42.98H20.97c-.99,0-1.8-.81-1.8-1.8v-15.28c0-.99,.81-1.8,1.8-1.8h17.74c.99,0,1.8,.81,1.8,1.8v15.28c0,.99-.81,1.8-1.8,1.8Zm-15.94-3.6h14.14v-11.68h-14.14v11.68Z"/><path d="M31.28,37.9h-5.94c-.99,0-1.8-.81-1.8-1.8s.81-1.8,1.8-1.8h5.94c.99,0,1.8,.81,1.8,1.8s-.81,1.8-1.8,1.8Z"/><path d="M29.84,30.86c-.99,0-1.8-.81-1.8-1.8v-3.16c0-.99,.81-1.8,1.8-1.8s1.8,.81,1.8,1.8v3.16c0,.99-.81,1.8-1.8,1.8Z"/><text x="0" y="115" fill="#000000" font-size="5px" font-weight="bold" font-family="'Helvetica Neue', Helvetica, Arial-Unicode, Arial, Sans-serif">Created by Asalngide Studio</text><text x="0" y="120" fill="#000000" font-size="5px" font-weight="bold" font-family="'Helvetica Neue', Helvetica, Arial-Unicode, Arial, Sans-serif">from the Noun Project</text></svg>