<svg xmlns="http://www.w3.org/2000/svg" version="1.1" viewBox="-5.0 -10.0 110.0 135.0">
 <path d="m92.902 67.82c1.0781-1.2188 1.5625-2.6719 1.6719-3.6836h0.003906c0.046875-0.42969-0.11719-0.85547-0.43359-1.1484-2.8711-2.6133-6.6133-4.0586-10.496-4.0508-1.2617 0-2.5234 0.16016-3.7461 0.46875l-6.543-15.195c0.40625 0.082031 0.82812 0.125 1.2617 0.125h2.7031c0.74609 0 1.3555-0.60547 1.3555-1.3555l-0.003907-10.152c0-0.74609-0.60547-1.3555-1.3555-1.3555l-2.6992 0.003906c-2.9727 0-5.4688 2.0273-6.2031 4.7695-0.99609-0.92578-2.0742-1.6719-3.1914-2.1992l-0.003906-9.9375c0-1.6523-1.3164-3-2.9648-3.043 0 0-3.4141-0.33984-3.4609-0.33984-1.6797 0-3.043 1.3633-3.043 3.043v3.3867c0 1.6797 1.3633 3.043 3.043 3.043 0.046875 0 3.6328-0.35156 3.7188-0.35938v3.3828c-0.33594-0.046875-0.67578-0.070312-1.0156-0.070312-0.10547 0-0.20312 0.015625-0.30469 0.035156h0.003907c-0.78516-0.46875-1.7266-0.60156-2.6094-0.36328l-5.8828 1.5742c-1.8047 0.48437-2.875 2.3398-2.3906 4.1445 0.48438 1.8047 2.3398 2.875 4.1445 2.3945l5.8828-1.5742-0.003906-0.003906c0.64844-0.17188 1.2305-0.53125 1.668-1.0352 1.4727 0.48047 3.8008 2.8203 4.7852 6.1719 1.6055 5.4531 1.6094 11.887 0.007812 17.215-0.94141 3.1328-3.3633 6.293-6.6602 6.293h-8.6992c-3.6836 0-6.5938-2.9336-6.7695-6.8281-0.074219-1.6367 0.13672-4.7422 2.3477-7.1445 1.543-1.6758 2.4336-2.4844 2.8203-2.8125h-0.003906c1.4492-0.26172 2.5078-1.5195 2.5078-2.9922v-2.0312c0-1.6797-1.3633-3.043-3.043-3.0469h-12.281c0.074219-0.29297 0.12109-0.59766 0.12109-0.91406v-24.551c0-2-1.6289-3.6289-3.6289-3.6289h-24.551c-2 0-3.6289 1.6289-3.6289 3.6289v24.555c0 2 1.6289 3.6289 3.6289 3.6289h10.242c-0.011719 0.10937-0.019531 0.21875-0.019531 0.33203v2.0312c0 0.47266 0.10938 0.91797 0.30469 1.3164v-0.007813c-2.1289 0.63281-4.1406 1.6094-5.9492 2.8945-0.58203-1.6055-2.1055-2.6758-3.8125-2.6758h-3.0391c-0.74609 0-1.3555 0.60547-1.3555 1.3555v5.4141c0 0.74609 0.60547 1.3555 1.3555 1.3555l1.6328-0.003906c-2.0586 3.1289-3.0508 6.6211-3.3164 11.41-0.019531 0.375 0.11328 0.73828 0.36719 1.0078s0.60938 0.42188 0.98438 0.42188h5.0117-0.003907c-0.40625 1.1992-0.61719 2.457-0.61719 3.7227 0 6.3438 5.1602 11.504 11.504 11.504 5.6523 0 10.363-4.0977 11.324-9.4805h26.57c2.9219 0 5.6953-1.1094 7.9922-3.043h0.003906c-0.046875 0.625-0.054687 1.25-0.027344 1.875 0.035157 0.65234 0.53125 1.1914 1.1836 1.2734 0.054687 0.007813 0.54688 0.066407 1.293 0.066407 0.45312 0 1-0.023438 1.5977-0.09375 0.99219 5.3438 5.6836 9.4023 11.309 9.4023 6.3438 0 11.504-5.1602 11.504-11.504 0-2.3906-0.73828-4.6914-2.0977-6.6172zm-30.727-40.664c-0.046875 0-3.4219 0.33594-3.4219 0.33594-0.16797-0.023438-0.29688-0.16797-0.29688-0.33594v-3.3867c0-0.16797 0.12891-0.3125 0.29688-0.33594 0 0 3.3789 0.33594 3.4219 0.33594 0.1875 0 0.33984 0.15234 0.33984 0.33984v2.707c0 0.089844-0.035156 0.17578-0.097656 0.23828-0.066407 0.066406-0.15234 0.10156-0.24219 0.10156zm15.156 33.137c-0.49609 0.22266-0.98438 0.46094-1.4531 0.73438-0.64453 0.37109-1.2578 0.78516-1.832 1.2344 0.51562-2.5742 0.75781-5.2461 0.72266-7.9258zm-2.7148-26.109h1.3477v7.4453h-1.3477c-2.0508 0-3.7227-1.6719-3.7227-3.7227s1.6719-3.7227 3.7227-3.7227zm-14.57 2.2461h0.003906c-0.089843 0.15625-0.23828 0.26953-0.41406 0.3125l-5.8828 1.5742 0.003906 0.003906c-0.35937 0.09375-0.73047-0.12109-0.82812-0.47656-0.097657-0.36328 0.11719-0.73438 0.47656-0.83203 0 0 6-1.5977 6.0586-1.5977 0.24219 0 0.46484 0.12891 0.58594 0.33984 0.12109 0.20703 0.12109 0.46484 0 0.67578zm-42.004-19.668h6.3867v6.4219h-6.3867zm-10.004 25.473v-24.551c0-0.50781 0.41406-0.92188 0.92188-0.92188h6.375v6.8672c0.003906 1.25 1.0156 2.2617 2.2656 2.2617h7.2734c1.25 0 2.2617-1.0117 2.2617-2.2617v-6.8672h6.375c0.50781 0 0.92188 0.41406 0.92188 0.92188v24.555-0.003906c0 0.48438-0.375 0.88281-0.85547 0.91406l-24.617 0.007812c-0.50781 0-0.91797-0.41406-0.92188-0.92188zm14.191 6.3281c-0.1875 0-0.33594-0.15234-0.33594-0.33594v-2.0312c0-0.17578 0.13672-0.31641 0.30469-0.33203l27.102-0.007812c0.1875 0 0.33594 0.15234 0.33984 0.33984v2.0312-0.003906c0 0.089844-0.039063 0.17578-0.10156 0.24219-0.0625 0.0625-0.14844 0.097656-0.23828 0.097656zm-14.191 3.8984h1.6875c0.72656 0.027343 1.3047 0.62891 1.3047 1.3555 0 0.72656-0.57812 1.3242-1.3047 1.3555h-1.6875zm3.8555 15.539c0.84375-6.0664 5.1289-12.52 14.617-12.52 6.0742 0.0625 12.312 3.4688 12.312 10.934 0 0.65234-0.046875 1.1094-0.14844 1.5859zm14.074 6.4375c0 2.0508-1.6719 3.7227-3.7227 3.7227-2.0508 0-3.7227-1.6719-3.7227-3.7227s1.6719-3.7227 3.7227-3.7227c2.0508 0 3.7227 1.668 3.7227 3.7227zm-3.7227 8.7969c-4.8516 0-8.7969-3.9453-8.7969-8.7969 0-1.2969 0.28906-2.5703 0.83203-3.7305h2.7461c-0.78516 1.0898-1.207 2.3945-1.207 3.7344 0 3.5469 2.8828 6.4297 6.4297 6.4297s6.4297-2.8828 6.4297-6.4297c0-1.3398-0.42188-2.6445-1.2031-3.7344h2.7383c0.54688 1.168 0.83203 2.4414 0.83203 3.7344 0.003906 4.8516-3.9453 8.7969-8.7969 8.7969zm37.895-9.4805h-26.41l0.003906 0.003906c-0.0625-1.0391-0.26172-2.0664-0.59766-3.0508h6.5898c0.60156 0 1.1328-0.39844 1.3008-0.97656 0.30859-1.0625 0.51172-1.8633 0.51172-3.3164 0-7.9414-6.2461-13.547-15.008-13.641-11.461 0-16.496 7.9375-17.359 15.234l-1.3594 0.003907c0.43359-4.5117 1.707-7.6484 4.2422-10.586 3.5273-4.082 8.3672-6.1523 14.391-6.1523h19.453v-0.003907c-0.29297 0.30859-0.58594 0.61719-0.87109 0.92969-2.8789 3.1211-3.1523 7.0391-3.0625 9.0977 0.23438 5.2773 4.3984 9.4141 9.4727 9.4141h8.7031c4.6836 0 8.0234-4.1289 9.2539-8.2227 1.7461-5.8125 1.7422-12.824-0.003906-18.762-0.78906-2.6758-2.3477-5.0586-4.1172-6.5586 1.6602 1.1289 3.1875 2.9141 4.293 5.0664l-0.003906 0.003906s1.0547 2.5547 1.1289 2.8008c1.8477 6.2695 1.8477 13.387 0.003906 19.531-1.6484 5.4922-5.8867 9.1875-10.547 9.1875zm17.09-10.391 0.003906 0.003907c4.6016-2.6602 10.367-2.2109 14.504 1.125-0.33203 1.0547-1.4023 3.0039-4.6055 2.9023-0.22266-0.007812-0.44922-0.011719-0.67578-0.011719-4.4375 0-7.9141 1.5078-10.332 4.4844-1.3867 1.7031-3.8359 2.0312-5.3125 2.0586 0.19141-4.3867 2.6133-8.3711 6.4219-10.559zm6.2617 7.3516 0.003906 0.003906c2.0547 0.003906 3.7188 1.668 3.7227 3.7227-0.003906 2.0547-1.668 3.7188-3.7227 3.7188-2.0547 0-3.7188-1.6641-3.7227-3.7188 0-2.0547 1.668-3.7227 3.7227-3.7227zm0 12.52c-4.3438 0-7.957-3.1641-8.668-7.3047v0.003906c0.8125-0.29688 1.5703-0.71484 2.2539-1.2422 0.13281 3.4297 2.957 6.1797 6.4141 6.1797 3.5508-0.003906 6.4258-2.8828 6.4297-6.4297 0-1.625-0.61719-3.1836-1.7266-4.3711 0.875-0.0625 1.7305-0.28125 2.5312-0.63672 1.0234 1.4688 1.5664 3.2188 1.5664 5.0078 0 4.8516-3.9453 8.7969-8.7969 8.7969z"/>
 <path d="m24.191 40.453c0.74609 0 1.3555-0.60547 1.3555-1.3555v-6.2461 0.003907c0-0.75-0.60547-1.3555-1.3555-1.3555-0.74609 0-1.3516 0.60547-1.3516 1.3555v6.2461-0.003906c0 0.75 0.60547 1.3555 1.3516 1.3555zm5.0039 0c0.74609 0 1.3555-0.60547 1.3555-1.3555v-6.2461 0.003907c0-0.75-0.60938-1.3555-1.3555-1.3555-0.75 0-1.3555 0.60547-1.3555 1.3555v6.2461c0 0.74609 0.60547 1.3555 1.3555 1.3555z"/>
<text x="0.0" y="117.5" font-size="5.0" font-weight="bold" font-family="Arbeit Regular, Helvetica, Arial-Unicode, Arial, Sans-serif" fill="#000000">Created by Viktor Turchyn</text><text x="0.0" y="122.5" font-size="5.0" font-weight="bold" font-family="Arbeit Regular, Helvetica, Arial-Unicode, Arial, Sans-serif" fill="#000000">from Noun Project</text></svg>